<svg version="1.0" xmlns="http://www.w3.org/2000/svg" width="256.000000pt" height="256.000000pt" viewBox="0 0 256.000000 256.000000" preserveAspectRatio="xMidYMid meet">

<g transform="translate(0.000000,256.000000) scale(0.100000,-0.100000)" fill="#259efe" stroke="none">
<path d="M1160 2549 c-573 -57 -1037 -485 -1136 -1049 -21 -123 -21 -317 0 -440 70 -398 328 -741 694 -924 405 -203 912 -165 1289 96 105 73 108 78 37 78 -130 1 -252 51 -351 143 -58 55 -130 144 -121 151 1 2 57 35 122 74 l119 71 38 -53 c20 -29 56 -65 80 -82 37 -26 52 -29 128 -32 68 -2 93 1 120 15 47 25 72 62 78 117 5 42 2 51 -23 78 -17 17 -99 65 -194 112 -199 99 -232 120 -288 180 -57 62 -73 102 -81 206 -16 204 59 360 208 431 57 28 193 37 284 20 69 -14 208 -78 247 -114 14 -13 38 -37 53 -54 l28 -30 -122 -89 c-75 -54 -124 -83 -127 -76 -8 24 -54 73 -83 87 -58 31 -160 10 -192 -38 -52 -82 -9 -163 118 -223 27 -13 96 -41 151 -63 119 -46 170 -76 230 -137 25 -24 46 -44 48 -44 14 0 39 203 39 315 0 351 -128 660 -373 905 -268 269 -649 407 -1020 369z m350 -969 l0 -130 -200 0 -200 0 -2 -557 -3 -558 -145 0 -145 0 -3 558 -2 557 -200 0 -200 0 0 130 0 130 550 0 550 0 0 -130z"/>
</g>
</svg>